#!OML:ASF H:\Punching\Project 1\Capture day 1\Session 1\female.ASF
:FULLY-SPECIFIED
:DEGREES
3448
root -1.16848 15.8526 39.9123 13.4842 106.974 -1.26527
lowerback -4.94648 0.91571 5.1203
upperback -5.72495 1.27315 -1.26165
thorax -3.02772 0.513869 -4.15478
lowerneck 0.3802 12.2633 21.3263
upperneck 26.4699 27.1787 -24.7361
head 16.421 13.6055 -9.12396
rclavicle 1.32898e-014 1.19768e-014
rhumerus -36.7092 -0.526464 -68.8012
rradius 21.6885
rwrist 14.3412
rhand -14.9909 -6.40902
rfingers 7.12502
rthumb 11.1735 -36.0915
lclavicle 1.32898e-014 1.19768e-014
lhumerus -47.8881 7.94544 72.3776
lradius 39.3549
lwrist -16.4057
lhand -6.43342 11.87
lfingers 7.12502
lthumb 19.4157 40.9207
rfemur -11.7754 -1.82884 22.912
rtibia 20.4271
rfoot -21.0606 -28.0451
rtoes 3.41483
lfemur -33.5858 3.66573 -18.2881
ltibia 39.7866
lfoot -15.1522 18.2806
ltoes 4.94568
3449
root -1.15792 15.8525 39.9133 13.6251 108.26 -1.19676
lowerback -4.93217 0.903357 5.1208
upperback -5.72153 1.2609 -1.21901
thorax -3.03431 0.509639 -4.11122
lowerneck 0.355855 12.2243 21.2527
upperneck 26.4625 27.1316 -24.6728
head 16.371 13.5889 -9.08889
rclavicle 2.10619e-014 -7.25564e-015
rhumerus -36.6268 -0.754005 -68.5792
rradius 21.5757
rwrist 14.6652
rhand -14.9306 -6.26681
rfingers 7.12502
rthumb 11.2317 -35.9461
lclavicle 2.10619e-014 -7.25564e-015
lhumerus -47.8937 7.97119 72.3263
lradius 39.2399
lwrist -16.5148
lhand -6.42883 11.9214
lfingers 7.12502
lthumb 19.4201 40.9716
rfemur -11.5704 -2.16571 23.1267
rtibia 20.3104
rfoot -21.2819 -28.5724
rtoes 3.35195
lfemur -33.7652 4.02976 -18.6018
ltibia 38.981
lfoot -15.3522 19.1077
ltoes 5.58298
3450
root -1.14608 15.8531 39.912 13.7581 109.514 -1.13886
lowerback -4.94113 0.91523 5.19777
upperback -5.7066 1.27572 -1.24932
thorax -3.01097 0.515623 -4.18554
lowerneck 0.291349 12.1881 21.2079
upperneck 26.4692 27.0389 -24.541
head 16.3075 13.5493 -9.0358
rclavicle -1.52769e-014 2.08724e-014
rhumerus -36.5501 -1.09018 -68.4428
rradius 21.47
rwrist 14.9961
rhand -14.933 -6.20918
rfingers 7.12502
rthumb 11.2294 -35.8886
lclavicle -1.52769e-014 2.08724e-014
lhumerus -47.8434 7.88262 72.2186
lradius 39.1121
lwrist -16.565
lhand -6.4685 11.9899
lfingers 7.12502
lthumb 19.3819 41.0439
rfemur -11.3558 -2.49161 23.3297
rtibia 20.1671
rfoot -21.4567 -29.0793
rtoes 3.18135
lfemur -33.9188 4.37781 -18.9184
ltibia 38.1422
lfoot -15.5947 19.9586
ltoes 6.43336
3451
root -1.13289 15.8547 39.9085 13.8989 110.734 -1.07637
lowerback -4.97728 0.946374 5.36752
upperback -5.67922 1.31015 -1.3574
thorax -2.95493 0.527614 -4.39219
lowerneck 0.193281 12.159 21.2154
upperneck 26.4832 26.9122 -24.3557
head 16.2392 13.4942 -8.97297
rclavicle -2.38899e-014 8.10048e-015
rhumerus -36.469 -1.52686 -68.4053
rradius 21.3668
rwrist 15.3314
rhand -14.909 -6.16381
rfingers 7.12502
rthumb 11.2525 -35.842
lclavicle -2.38899e-014 8.10048e-015
lhumerus -47.7466 7.71866 72.0196
lradius 38.9806
lwrist -16.5824
lhand -6.51486 12.0554
lfingers 7.12502
lthumb 19.3374 41.1139
rfemur -11.1281 -2.80245 23.5259
rtibia 19.9896
rfoot -21.5736 -29.5878
rtoes 2.86436
lfemur -34.0539 4.71516 -19.2332
ltibia 37.2787
lfoot -15.8753 20.835
ltoes 7.37959
3452
root -1.11849 15.8572 39.9024 14.054 111.927 -1.00183
lowerback -5.02904 1.00203 5.60497
upperback -5.64829 1.3735 -1.52067
thorax -2.88109 0.551449 -4.69383
lowerneck 0.0593539 12.1238 21.2691
upperneck 26.519 26.7473 -24.1318
head 16.1761 13.4232 -8.90898
rclavicle 2.80997e-014 -2.05742e-014
rhumerus -36.4007 -2.07374 -68.4149
rradius 21.2667
rwrist 15.6889
rhand -14.821 -6.05154
rfingers 7.12502
rthumb 11.3374 -35.7251
lclavicle 2.80997e-014 -2.05742e-014
lhumerus -47.6118 7.47849 71.7707
lradius 38.84
lwrist -16.5578
lhand -6.54713 12.1295
lfingers 7.12502
lthumb 19.3063 41.1912
rfemur -10.8829 -3.1055 23.719
rtibia 19.7705
rfoot -21.6422 -30.0842
rtoes 2.45893
lfemur -34.1728 5.02064 -19.5363
ltibia 36.4005
lfoot -16.191 21.7392
ltoes 8.34671
3453
root -1.10309 15.8602 39.8937 14.2405 113.093 -0.897679
lowerback -5.08325 1.04704 5.78769
upperback -5.62641 1.42554 -1.62881
thorax -2.81772 0.572597 -4.90751
lowerneck -0.0726658 12.084 21.2909
upperneck 26.5608 26.6005 -23.9394
head 16.1259 13.3588 -8.85096
rclavicle 1.52847e-014 -2.03263e-014
rhumerus -36.3087 -2.49397 -68.4149
rradius 21.1895
rwrist 15.9662
rhand -14.648 -5.88373
rfingers 7.12502
rthumb 11.5042 -35.548
lclavicle 1.52847e-014 -2.03263e-014
lhumerus -47.5233 7.3533 71.5392
lradius 38.7014
lwrist -16.5607
lhand -6.56927 12.2049
lfingers 7.12502
lthumb 19.285 41.2687
rfemur -10.6237 -3.40196 23.9192
rtibia 19.5128
rfoot -21.681 -30.5857
rtoes 2.00067
lfemur -34.283 5.29713 -19.8194
ltibia 35.5221
lfoot -16.5169 22.6903
ltoes 9.19315
3454
root -1.08675 15.8634 39.8825 14.4512 114.234 -0.772397
lowerback -5.14276 1.07319 5.93351
upperback -5.61523 1.45456 -1.69102
thorax -2.76653 0.58415 -5.05306
lowerneck -0.185966 12.0473 21.2868
upperneck 26.5975 26.4822 -23.7786
head 16.0835 13.3068 -8.79737
rclavicle 2.15592e-014 -1.28713e-014
rhumerus -36.1845 -2.78645 -68.425
rradius 21.1258
rwrist 16.1898
rhand -14.4393 -5.68559
rfingers 7.12502
rthumb 11.7055 -35.3386
lclavicle 2.15592e-014 -1.28713e-014
lhumerus -47.4914 7.34129 71.312
lradius 38.5656
lwrist -16.5551
lhand -6.58898 12.2863
lfingers 7.12502
lthumb 19.2661 41.3519
rfemur -10.3524 -3.68856 24.1249
rtibia 19.2203
rfoot -21.7084 -31.0772
rtoes 1.54918
lfemur -34.3896 5.53784 -20.0781
ltibia 34.6551
lfoot -16.874 23.6629
ltoes 9.93314
